<?xml version="1.0" encoding="utf-8"?>
<!-- Generator: Adobe Illustrator 23.0.1, SVG Export Plug-In . SVG Version: 6.00 Build 0)  -->
<svg version="1.1" id="图层_1" xmlns="http://www.w3.org/2000/svg" xmlns:xlink="http://www.w3.org/1999/xlink" x="0px" y="0px"
	 viewBox="0 0 100 100" style="enable-background:new 0 0 100 100;" xml:space="preserve">
<style type="text/css">
	.st0{fill:none;stroke:#000000;stroke-miterlimit:10;}
	.st1{fill:none;stroke:#000000;stroke-width:2;stroke-miterlimit:10;}
</style>
<path class="st0" d="M94.32,40.94"/>
<path class="st1" d="M-0.52,35.95"/>
<path class="st1" d="M27.74,27.56"/>
<path class="st1" d="M100,35.84"/>
<path class="st1" d="M71.26,26.49"/>
<path class="st1" d="M71.86,26.48"/>
<path class="st1" d="M71.86,26.48"/>
<path class="st1" d="M27.05,27.56"/>
<path class="st1" d="M71.26,25.58"/>
<path class="st1" d="M99.01,100.36"/>
<path class="st1" d="M26.75,26.85"/>
<path class="st1" d="M52.36,44.62"/>
<path class="st1" d="M69.33,23.79"/>
<path class="st1" d="M54.16,54.74"/>
<path class="st1" d="M72.26,26.32"/>
<path class="st1" d="M8.44,36.88h4.76c2.24,18.12,17.51,31.9,35.43,32.3c18.51,0.41,34.74-13.57,37.07-32.3l3.87,0.15
	C86.5,57.04,69.6,72,49.98,72.61C29.21,73.25,11.27,57.18,8.3,35.95"/>
<line class="st1" x1="21.69" y1="62.31" x2="0.87" y2="99.7"/>
<line class="st1" x1="77.72" y1="60.45" x2="100" y2="100"/>
<path class="st1" d="M44.77,71.8"/>
<path class="st1" d="M9.34,39.5"/>
</svg>
