<?xml version="1.0" encoding="utf-8"?>
<!-- Generator: Adobe Illustrator 23.0.1, SVG Export Plug-In . SVG Version: 6.00 Build 0)  -->
<svg version="1.1" id="图层_1" xmlns="http://www.w3.org/2000/svg" xmlns:xlink="http://www.w3.org/1999/xlink" x="0px" y="0px"
	 viewBox="0 0 100 100" style="enable-background:new 0 0 100 100;" xml:space="preserve">
<style type="text/css">
	.st0{fill:none;stroke:#000000;stroke-width:2;stroke-miterlimit:10;}
	.st1{fill:none;stroke:#000000;stroke-miterlimit:10;}
</style>
<path class="st0" d="M71.26,26.49"/>
<path class="st0" d="M71.86,26.48"/>
<path class="st0" d="M71.86,26.48"/>
<path class="st0" d="M71.26,25.58"/>
<path class="st0" d="M69.33,23.79"/>
<path class="st0" d="M72.26,26.32"/>
<path class="st1" d="M50.09,100"/>
<path class="st1" d="M29.26,78.75"/>
<path class="st1" d="M8.43,73.88"/>
<path class="st1" d="M50.09,100c-2.18-4.22-6.97-12.13-16.12-18.73c-8.38-6.04-16.58-8.21-21.16-9.07"/>
<path class="st1" d="M9.94,72.54"/>
<path class="st1" d="M12.8,72.2c-2.45,2.29-5.62,5.19-9.07,12.6C0.94,90.78,0.16,96.81,0,99.41"/>
<path class="st1" d="M50.09,99.71"/>
<path class="st1" d="M70.91,78.46"/>
<path class="st1" d="M91.74,73.59"/>
<path class="st1" d="M50.09,99.71c2.18-4.22,6.97-12.13,16.12-18.73c8.38-6.04,16.58-8.21,21.16-9.07"/>
<path class="st1" d="M90.23,72.24"/>
<path class="st1" d="M87.37,71.91c2.45,2.29,5.62,5.19,9.07,12.6c2.79,5.98,3.57,12.01,3.73,14.61"/>
<path class="st1" d="M-14.41,31.72"/>
</svg>
